<?xml version="1.0" standalone="no"?><!DOCTYPE svg PUBLIC "-//W3C//DTD SVG 1.1//EN" "http://www.w3.org/Graphics/SVG/1.1/DTD/svg11.dtd"><svg t="1729328273193" class="icon" viewBox="-60 -240 1500 1500" version="1.1" xmlns="http://www.w3.org/2000/svg" p-id="5010" xmlns:xlink="http://www.w3.org/1999/xlink" width="266.6015625" height="200"><path d="M384 273.088V0H221.888A222.528 222.528 0 0 0 0 221.888v51.2zM0 750.912v51.2A222.528 222.528 0 0 0 221.888 1024H384v-273.088zM0 375.488h384v273.088H0zM486.4 0h384v273.088h-384zM1365.312 273.088v-51.2A222.528 222.528 0 0 0 1143.488 0H972.8v273.088zM486.4 750.912h384V1024h-384zM972.8 375.488h392.512v273.088H972.8zM972.8 750.912V1024h170.688a222.528 222.528 0 0 0 221.824-221.888v-51.2z" fill="#F83732" p-id="5011"></path></svg>