<svg id="vector" xmlns="http://www.w3.org/2000/svg" width="135" height="135" viewBox="0 0 135 135"><path fill="#8e7650" d="m56.722,48.542 l21.19,0.062 10.969,18.946 -10.844,18.697 -21.377,0 -10.906,-18.759z" stroke-opacity="1" stroke-linejoin="miter" stroke-width="1" stroke="#00000000" fill-rule="evenodd" fill-opacity="1" stroke-linecap="butt" id="path_0"/><path fill="#ffc200" d="M56.722,0.016 L77.912,0.078 88.88,19.024l-10.844,18.697 -21.377,0 -10.906,-18.759z" stroke-opacity="1" stroke-linejoin="miter" stroke-width="1" stroke="#00000000" fill-rule="evenodd" fill-opacity="1" stroke-linecap="butt" id="path_1"/><path fill="#ffc200" d="M56.722,97.295 L77.912,97.357 88.88,116.303 78.036,135 56.66,135 45.753,116.241Z" stroke-opacity="1" stroke-linejoin="miter" stroke-width="1" stroke="#00000000" fill-rule="evenodd" fill-opacity="1" stroke-linecap="butt" id="path_2"/><path fill="#ffc200" d="m98.666,72.694 l21.19,0.062 10.969,18.946 -10.844,18.697 -21.377,0 -10.906,-18.759z" stroke-opacity="1" stroke-linejoin="miter" stroke-width="1" stroke="#00000000" fill-rule="evenodd" fill-opacity="1" stroke-linecap="butt" id="path_3"/><path fill="#ffc200" d="m98.666,24.329 l21.19,0.062 10.969,18.946 -10.844,18.697 -21.377,0 -10.906,-18.759z" stroke-opacity="1" stroke-linejoin="miter" stroke-width="1" stroke="#00000000" fill-rule="evenodd" fill-opacity="1" stroke-linecap="butt" id="path_4"/><path fill="#ffc200" d="m14.947,24.329 l21.146,0.062 10.946,18.946 -10.822,18.697 -21.333,0 -10.884,-18.759z" stroke-opacity="1" stroke-linejoin="miter" stroke-width="1" stroke="#00000000" fill-rule="evenodd" fill-opacity="1" stroke-linecap="butt" id="path_5"/><path fill="#ffc200" d="m14.969,72.694 l21.19,0.062 10.969,18.946 -10.844,18.697 -21.377,0L4,91.64Z" stroke-opacity="1" stroke-linejoin="miter" stroke-width="1" stroke="#00000000" fill-rule="evenodd" fill-opacity="1" stroke-linecap="butt" id="path_6"/></svg>