<svg id="vector" xmlns="http://www.w3.org/2000/svg" width="128" height="128" viewBox="0 0 128 128"><path fill="#ed2229" d="m33.219,67.589c-0.4,1.135 -0.467,2.137 -0.501,2.804v15.624h12.587v-49.544l-45.304,49.544h16.96l14.857,-16.459c0.834,-0.901 1.569,-2.437 1.402,-1.97" stroke-linejoin="miter" stroke-width="0.01345322" stroke="#00000000" fill-rule="nonzero" fill-opacity="1" stroke-linecap="butt" id="path_0"/><path fill="#007fd6" d="m61.095,56.972c0.401,-1.135 0.468,-2.137 0.501,-2.804v-17.194h-12.119v50.479l59.827,-65.335 -17.26,0.033 -29.513,32.851c-0.868,0.901 -1.602,2.404 -1.436,1.97" stroke-linejoin="miter" stroke-width="0.01345322" stroke="#00000000" fill-rule="nonzero" fill-opacity="1" stroke-linecap="butt" id="path_1"/><path fill="#000000" d="M103.729,60.344 L128,33.836v52.182L114.913,86.018L114.913,66.354L91.61,92.06v-26.141l-36.19,39.963h-17.194l65.502,-71.478v25.941" stroke-linejoin="miter" stroke-width="0.01345322" stroke="#00000000" fill-rule="nonzero" stroke-linecap="butt" id="path_2"/></svg>