<svg id="vector" xmlns="http://www.w3.org/2000/svg" width="125.92" height="118.61" viewBox="0 0 125.92 118.61"><path fill="#1f2938" d="M62.96,0 L43.08,11.48 56.33,19.13 62.95,15.30l6.64,3.82 13.25,-7.65z" id="path_0"/><path fill="#1f2938" d="m62.97,118.61 l49.70,-28.69 -0.00,-30.61 -13.26,7.65 0.00,15.30 -36.45,21.04 -36.45,-21.05 -0.00,-15.30 -13.25,-7.65v30.60z" id="path_1"/><path fill="#1f2938" d="m119.29,24.86v0.01l0.00,15.29 -46.39,26.79 13.24,7.65L62.96,88.00 39.77,74.61 53.02,66.96 6.62,40.17 6.63,24.88 0,21.05L0,1.92l56.33,32.51 6.63,-3.82 6.61,3.82 56.34,-32.52v19.12z" id="path_2"/></svg>