<svg id="vector" xmlns="http://www.w3.org/2000/svg" width="128" height="128" viewBox="0 0 128 128"><path fill="#339966" d="m58.532,103.219v-46.701l-20.382,-20.382a38.734,38.734 0,0 0,-12.885 28.785,38.734 38.734,0 0,0 33.266,38.298z" id="path_0"/><path fill="#339966" d="m89.852,36.133 l-20.384,20.385v46.708a38.734,38.734 0,0 0,33.266 -38.306,38.734 38.734,0 0,0 -12.882,-28.788z" id="path_1"/><path fill="#990000" d="M64,21.237m-21.237,0a21.237,21.237 0,1 1,42.475 0a21.237,21.237 0,1 1,-42.475 0" id="path_2"/><path fill="none" d="m101.26,24.086a55.28,55.28 0,0 1,14.275 60.837,55.28 55.28,0 0,1 -51.579,35.278 55.28,55.28 0,0 1,-51.522 -35.361,55.28 55.28,0 0,1 14.372,-60.814" stroke-width="15.59714127" stroke="#006699" id="path_3"/></svg>