<svg id="vector" xmlns="http://www.w3.org/2000/svg" width="128" height="168.30" viewBox="0 0 128.002 168.30"><path fill="#fccb06" d="m0.00,83.48c0,-9.45 0.79,-15.44 20.36,-30.05 16.20,-12.09 68.13,-53.42 68.13,-53.42L88.50,68.99l39.49,-0L128,168.30L12.33,168.30C5.55,168.30 -0,162.74 -0,155.96L0.00,83.48" id="path_0"/><path fill="#cfa705" d="M88.50,68.99L88.50,108.97L15.92,158.41 107.68,128.56l0,-59.56l-19.18,-0" id="path_1"/><path fill="#231f20" d="m55.33,66.92c4.24,-5.05 10.44,-6.84 13.84,-3.98 3.40,2.85 2.72,9.27 -1.52,14.32 -4.24,5.05 -10.44,6.84 -13.84,3.98 -3.40,-2.85 -2.72,-9.27 1.52,-14.32" id="path_2"/></svg>