<svg id="vector" xmlns="http://www.w3.org/2000/svg" width="128" height="128" viewBox="0 0 128 128"><path fill="#FFFFFFFF" d="M10.296,0L117.704,0A10.296,10.296 0,0 1,128 10.296L128,117.704A10.296,10.296 0,0 1,117.704 128L10.296,128A10.296,10.296 0,0 1,0 117.704L0,10.296A10.296,10.296 0,0 1,10.296 0z" id="path_0"/><path fill="#f2f2f2" d="M13.774,70.122h71.791v9.878h-71.791z" id="path_1"/><path fill="#f2f2f2" d="M13.774,85.426h88.904v9.878h-88.904z" id="path_2"/><path fill="#f2f2f2" d="M13.774,101.287h56.904v9.878h-56.904z" id="path_3"/><path fill="#086dd5" d="m10.335,0c-5.726,0 -10.335,4.61 -10.335,10.335v8.348,10.912 10.335h10.335,107.329 10.335v-10.335,-10.912 -8.348c0,-5.726 -4.61,-10.335 -10.335,-10.335z" id="path_4"/><path fill="#f2f2f2" d="M13.774,53.983h100.035v9.878h-100.035z" id="path_5"/></svg>