<svg id="vector" xmlns="http://www.w3.org/2000/svg" width="87.45378" height="82" viewBox="0 0 87.418564 81.96698"><defs><linearGradient gradientUnits="userSpaceOnUse" x2="10.147" y2="74.46391" x1="74.486" y1="12.388914" id="gradient_0"><stop stop-color="#FFF44FFF" offset="0.048"/><stop stop-color="#FFE847FF" offset="0.111"/><stop stop-color="#FFC830FF" offset="0.225"/><stop stop-color="#FF980EFF" offset="0.368"/><stop stop-color="#FF8B16FF" offset="0.401"/><stop stop-color="#FF672AFF" offset="0.462"/><stop stop-color="#FF3647FF" offset="0.534"/><stop stop-color="#E31587FF" offset="0.705"/></linearGradient><radialGradient gradientUnits="userSpaceOnUse" cx="71.5132" cy="8.874993" r="80.797" id="gradient_1"><stop stop-color="#FFBD4FFF" offset="0.129"/><stop stop-color="#FFAC31FF" offset="0.186"/><stop stop-color="#FF9D17FF" offset="0.247"/><stop stop-color="#FF980EFF" offset="0.283"/><stop stop-color="#FF563BFF" offset="0.403"/><stop stop-color="#FF3750FF" offset="0.467"/><stop stop-color="#F5156CFF" offset="0.71"/><stop stop-color="#EB0878FF" offset="0.782"/><stop stop-color="#E50080FF" offset="0.86"/></radialGradient><radialGradient gradientUnits="userSpaceOnUse" cx="41.989296" cy="41.907192" r="80.797" id="gradient_2"><stop stop-color="#960E18FF" offset="0.3"/><stop stop-color="#B11927BC" offset="0.351"/><stop stop-color="#DB293D57" offset="0.435"/><stop stop-color="#F5334B17" offset="0.497"/><stop stop-color="#FF375000" offset="0.53"/></radialGradient><radialGradient gradientUnits="userSpaceOnUse" cx="51.729996" cy="-9.460906" r="58.534" id="gradient_3"><stop stop-color="#FFF44FFF" offset="0.132"/><stop stop-color="#FFDC3EFF" offset="0.252"/><stop stop-color="#FF9D12FF" offset="0.506"/><stop stop-color="#FF980EFF" offset="0.526"/></radialGradient><radialGradient gradientUnits="userSpaceOnUse" cx="33.052296" cy="63.011692" r="38.471" id="gradient_4"><stop stop-color="#3A8EE6FF" offset="0.353"/><stop stop-color="#5C79F0FF" offset="0.472"/><stop stop-color="#9059FFFF" offset="0.669"/><stop stop-color="#C139E6FF" offset="1"/></radialGradient><radialGradient gradientUnits="userSpaceOnUse" cx="46.40402" cy="35.28533" r="20.39709" id="gradient_5"><stop stop-color="#9059FF00" offset="0.206"/><stop stop-color="#8C4FF310" offset="0.278"/><stop stop-color="#7716A872" offset="0.747"/><stop stop-color="#6E008B99" offset="0.975"/></radialGradient><radialGradient gradientUnits="userSpaceOnUse" cx="40.969196" cy="5.569294" r="27.676" id="gradient_6"><stop stop-color="#FFE226FF" offset="0"/><stop stop-color="#FFDB27FF" offset="0.121"/><stop stop-color="#FFC82AFF" offset="0.295"/><stop stop-color="#FFA930FF" offset="0.502"/><stop stop-color="#FF7E37FF" offset="0.732"/><stop stop-color="#FF7139FF" offset="0.792"/></radialGradient><radialGradient gradientUnits="userSpaceOnUse" cx="62.723095" cy="-11.985306" r="118.081" id="gradient_7"><stop stop-color="#FFF44FFF" offset="0.113"/><stop stop-color="#FF980EFF" offset="0.456"/><stop stop-color="#FF5634FF" offset="0.622"/><stop stop-color="#FF3647FF" offset="0.716"/><stop stop-color="#E31587FF" offset="0.904"/></radialGradient><radialGradient gradientUnits="userSpaceOnUse" cx="52.770664" cy="-5.4199734" r="86.5444" id="gradient_8"><stop stop-color="#FFF44FFF" offset="0"/><stop stop-color="#FFE847FF" offset="0.06"/><stop stop-color="#FFC830FF" offset="0.168"/><stop stop-color="#FF980EFF" offset="0.304"/><stop stop-color="#FF8B16FF" offset="0.356"/><stop stop-color="#FF672AFF" offset="0.455"/><stop stop-color="#FF3647FF" offset="0.57"/><stop stop-color="#E31587FF" offset="0.737"/></radialGradient><radialGradient gradientUnits="userSpaceOnUse" cx="40.317394" cy="15.820293" r="73.72" id="gradient_9"><stop stop-color="#FFF44FFF" offset="0.137"/><stop stop-color="#FF980EFF" offset="0.48"/><stop stop-color="#FF5634FF" offset="0.592"/><stop stop-color="#FF3647FF" offset="0.655"/><stop stop-color="#E31587FF" offset="0.904"/></radialGradient><radialGradient gradientUnits="userSpaceOnUse" cx="59.777294" cy="20.134794" r="80.686" id="gradient_10"><stop stop-color="#FFF44FFF" offset="0.094"/><stop stop-color="#FFE141FF" offset="0.231"/><stop stop-color="#FFAF1EFF" offset="0.509"/><stop stop-color="#FF980EFF" offset="0.626"/></radialGradient><linearGradient gradientUnits="userSpaceOnUse" x2="18.967001" y2="66.80192" x1="73.713" y1="12.056914" id="gradient_11"><stop stop-color="#FFF44FCC" offset="0.167"/><stop stop-color="#FFF44FA1" offset="0.266"/><stop stop-color="#FFF44F37" offset="0.489"/><stop stop-color="#FFF44F00" offset="0.6"/></linearGradient></defs><path fill="url(#gradient_0)" d="m79.616,26.8269c-1.684,-4.052 -5.1,-8.427 -7.775,-9.81a40.266,40.266 0,0 1,3.925 11.764l0.007,0.065c-4.382,-10.925 -11.813,-15.33 -17.882,-24.922 -0.307,-0.485 -0.614,-0.971 -0.913,-1.484 -0.171,-0.293 -0.308,-0.557 -0.427,-0.8a7.053,7.053 0,0 1,-0.578 -1.535,0.1 0.1,0 0,0 -0.088,-0.1 0.138,0.138 0,0 0,-0.073 0c-0.005,0 -0.013,0.009 -0.019,0.011 -0.006,0.002 -0.019,0.011 -0.028,0.015l0.015,-0.026c-9.735,5.7 -13.038,16.252 -13.342,21.53a19.387,19.387 0,0 0,-10.666 4.111,11.587 11.587,0 0,0 -1,-0.758 17.968,17.968 0,0 1,-0.109 -9.473,28.705 28.705,0 0,0 -9.329,7.21h-0.018c-1.536,-1.947 -1.428,-8.367 -1.34,-9.708a6.928,6.928 0,0 0,-1.294 0.687,28.225 28.225,0 0,0 -3.788,3.245 33.845,33.845 0,0 0,-3.623 4.347v0.006,-0.007a32.733,32.733 0,0 0,-5.2 11.743l-0.052,0.256c-0.073,0.341 -0.336,2.049 -0.381,2.42 0,0.029 -0.006,0.056 -0.009,0.085A36.937,36.937 0,0 0,5 41.0419v0.2a38.759,38.759 0,0 0,76.954 6.554c0.065,-0.5 0.118,-0.995 0.176,-1.5a39.857,39.857 0,0 0,-2.514 -19.469zM34.946,57.1649c0.181,0.087 0.351,0.181 0.537,0.264l0.027,0.017q-0.282,-0.135 -0.564,-0.281zM43.824,33.7889zM75.776,28.8549v-0.037l0.007,0.041z" id="path_0"/><path fill="url(#gradient_1)" d="m79.616,26.8269c-1.684,-4.052 -5.1,-8.427 -7.775,-9.81a40.266,40.266 0,0 1,3.925 11.764v0.037l0.007,0.041a35.1,35.1 0,0 1,-1.206 26.158c-4.442,9.531 -15.194,19.3 -32.024,18.825 -18.185,-0.515 -34.2,-14.009 -37.194,-31.683 -0.545,-2.787 0,-4.2 0.274,-6.465A28.876,28.876 0,0 0,5 41.0419v0.2a38.759,38.759 0,0 0,76.954 6.554c0.065,-0.5 0.118,-0.995 0.176,-1.5a39.857,39.857 0,0 0,-2.514 -19.469z" id="path_1"/><path fill="url(#gradient_2)" d="m79.616,26.8269c-1.684,-4.052 -5.1,-8.427 -7.775,-9.81a40.266,40.266 0,0 1,3.925 11.764v0.037l0.007,0.041a35.1,35.1 0,0 1,-1.206 26.158c-4.442,9.531 -15.194,19.3 -32.024,18.825 -18.185,-0.515 -34.2,-14.009 -37.194,-31.683 -0.545,-2.787 0,-4.2 0.274,-6.465A28.876,28.876 0,0 0,5 41.0419v0.2a38.759,38.759 0,0 0,76.954 6.554c0.065,-0.5 0.118,-0.995 0.176,-1.5a39.857,39.857 0,0 0,-2.514 -19.469z" id="path_2"/><path fill="url(#gradient_3)" d="m60.782,31.3829c0.084,0.059 0.162,0.118 0.241,0.177a21.1,21.1 0,0 0,-3.6 -4.695C45.377,14.8169 54.266,0.7419 55.765,0.0269l0.015,-0.022c-9.735,5.7 -13.038,16.252 -13.342,21.53 0.452,-0.031 0.9,-0.069 1.362,-0.069a19.56,19.56 0,0 1,16.982 9.917z" id="path_3"/><path fill="url(#gradient_4)" d="m43.825,33.7889c-0.064,0.964 -3.47,4.289 -4.661,4.289 -11.021,0 -12.81,6.667 -12.81,6.667 0.488,5.614 4.4,10.238 9.129,12.684 0.216,0.112 0.435,0.213 0.654,0.312q0.569,0.252 1.138,0.466a17.235,17.235 0,0 0,5.043 0.973c19.317,0.906 23.059,-23.1 9.119,-30.066a13.38,13.38 0,0 1,9.345 2.269,19.56 19.56,0 0,0 -16.982,-9.917c-0.46,0 -0.91,0.038 -1.362,0.069a19.387,19.387 0,0 0,-10.666 4.111c0.591,0.5 1.258,1.168 2.663,2.553 2.63,2.591 9.375,5.275 9.39,5.59z" id="path_4"/><path fill="url(#gradient_5)" d="m43.825,33.7889c-0.064,0.964 -3.47,4.289 -4.661,4.289 -11.021,0 -12.81,6.667 -12.81,6.667 0.488,5.614 4.4,10.238 9.129,12.684 0.216,0.112 0.435,0.213 0.654,0.312q0.569,0.252 1.138,0.466a17.235,17.235 0,0 0,5.043 0.973c19.317,0.906 23.059,-23.1 9.119,-30.066a13.38,13.38 0,0 1,9.345 2.269,19.56 19.56,0 0,0 -16.982,-9.917c-0.46,0 -0.91,0.038 -1.362,0.069a19.387,19.387 0,0 0,-10.666 4.111c0.591,0.5 1.258,1.168 2.663,2.553 2.63,2.591 9.375,5.275 9.39,5.59z" id="path_5"/><path fill="url(#gradient_6)" d="m29.965,24.3569c0.314,0.2 0.573,0.374 0.8,0.531a17.968,17.968 0,0 1,-0.109 -9.473,28.705 28.705,0 0,0 -9.329,7.21c0.189,-0.005 5.811,-0.106 8.638,1.732z" id="path_6"/><path fill="url(#gradient_7)" d="m5.354,42.1589c2.991,17.674 19.009,31.168 37.194,31.683 16.83,0.476 27.582,-9.294 32.024,-18.825a35.1,35.1 0,0 0,1.206 -26.158v-0.037c0,-0.029 -0.006,-0.046 0,-0.037l0.007,0.065c1.375,8.977 -3.191,17.674 -10.329,23.555l-0.022,0.05c-13.908,11.327 -27.218,6.834 -29.912,5q-0.282,-0.135 -0.564,-0.281c-8.109,-3.876 -11.459,-11.264 -10.741,-17.6a9.953,9.953 0,0 1,-9.181 -5.775,14.618 14.618,0 0,1 14.249,-0.572 19.3,19.3 0,0 0,14.552 0.572c-0.015,-0.315 -6.76,-3 -9.39,-5.59 -1.405,-1.385 -2.072,-2.052 -2.663,-2.553a11.587,11.587 0,0 0,-1 -0.758c-0.23,-0.157 -0.489,-0.327 -0.8,-0.531 -2.827,-1.838 -8.449,-1.737 -8.635,-1.732h-0.018c-1.536,-1.947 -1.428,-8.367 -1.34,-9.708a6.928,6.928 0,0 0,-1.294 0.687,28.225 28.225,0 0,0 -3.788,3.245 33.845,33.845 0,0 0,-3.638 4.337v0.006,-0.007a32.733,32.733 0,0 0,-5.2 11.743c-0.019,0.079 -1.396,6.099 -0.717,9.221z" id="path_7"/><path fill="url(#gradient_8)" d="m57.425,26.8649a21.1,21.1 0,0 1,3.6 4.7c0.213,0.161 0.412,0.321 0.581,0.476 8.787,8.1 4.183,19.55 3.84,20.365 7.138,-5.881 11.7,-14.578 10.329,-23.555 -4.384,-10.93 -11.815,-15.335 -17.884,-24.927 -0.307,-0.485 -0.614,-0.971 -0.913,-1.484 -0.171,-0.293 -0.308,-0.557 -0.427,-0.8a7.053,7.053 0,0 1,-0.578 -1.535,0.1 0.1,0 0,0 -0.088,-0.1 0.138,0.138 0,0 0,-0.073 0c-0.005,0 -0.013,0.009 -0.019,0.011 -0.006,0.002 -0.019,0.011 -0.028,0.015 -1.499,0.711 -10.388,14.786 1.66,26.834z" id="path_8"/><path fill="url(#gradient_9)" d="m61.6,32.0359c-0.169,-0.155 -0.368,-0.315 -0.581,-0.476 -0.079,-0.059 -0.157,-0.118 -0.241,-0.177a13.38,13.38 0,0 0,-9.345 -2.269c13.94,6.97 10.2,30.972 -9.119,30.066a17.235,17.235 0,0 1,-5.043 -0.973q-0.569,-0.213 -1.138,-0.466c-0.219,-0.1 -0.438,-0.2 -0.654,-0.312l0.027,0.017c2.694,1.839 16,6.332 29.912,-5l0.022,-0.05c0.347,-0.81 4.951,-12.263 -3.84,-20.36z" id="path_9"/><path fill="url(#gradient_10)" d="m26.354,44.7449c0,0 1.789,-6.667 12.81,-6.667 1.191,0 4.6,-3.325 4.661,-4.289a19.3,19.3 0,0 1,-14.552 -0.572,14.618 14.618,0 0,0 -14.249,0.572 9.953,9.953 0,0 0,9.181 5.775c-0.718,6.337 2.632,13.725 10.741,17.6 0.181,0.087 0.351,0.181 0.537,0.264 -4.733,-2.445 -8.641,-7.069 -9.129,-12.683z" id="path_10"/><path fill="url(#gradient_11)" d="m79.616,26.8269c-1.684,-4.052 -5.1,-8.427 -7.775,-9.81a40.266,40.266 0,0 1,3.925 11.764l0.007,0.065c-4.382,-10.925 -11.813,-15.33 -17.882,-24.922 -0.307,-0.485 -0.614,-0.971 -0.913,-1.484 -0.171,-0.293 -0.308,-0.557 -0.427,-0.8a7.053,7.053 0,0 1,-0.578 -1.535,0.1 0.1,0 0,0 -0.088,-0.1 0.138,0.138 0,0 0,-0.073 0c-0.005,0 -0.013,0.009 -0.019,0.011 -0.006,0.002 -0.019,0.011 -0.028,0.015l0.015,-0.026c-9.735,5.7 -13.038,16.252 -13.342,21.53 0.452,-0.031 0.9,-0.069 1.362,-0.069a19.56,19.56 0,0 1,16.982 9.917,13.38 13.38,0 0,0 -9.345,-2.269c13.94,6.97 10.2,30.972 -9.119,30.066a17.235,17.235 0,0 1,-5.043 -0.973q-0.569,-0.213 -1.138,-0.466c-0.219,-0.1 -0.438,-0.2 -0.654,-0.312l0.027,0.017q-0.282,-0.135 -0.564,-0.281c0.181,0.087 0.351,0.181 0.537,0.264 -4.733,-2.446 -8.641,-7.07 -9.129,-12.684 0,0 1.789,-6.667 12.81,-6.667 1.191,0 4.6,-3.325 4.661,-4.289 -0.015,-0.315 -6.76,-3 -9.39,-5.59 -1.405,-1.385 -2.072,-2.052 -2.663,-2.553a11.587,11.587 0,0 0,-1 -0.758,17.968 17.968,0 0,1 -0.109,-9.473 28.705,28.705 0,0 0,-9.329 7.21h-0.018c-1.536,-1.947 -1.428,-8.367 -1.34,-9.708a6.928,6.928 0,0 0,-1.294 0.687,28.225 28.225,0 0,0 -3.788,3.245 33.845,33.845 0,0 0,-3.623 4.347v0.006,-0.007a32.733,32.733 0,0 0,-5.2 11.743l-0.052,0.256c-0.073,0.341 -0.4,2.073 -0.447,2.445 0,0.028 0,-0.029 0,0A45.094,45.094 0,0 0,5 41.0419v0.2a38.759,38.759 0,0 0,76.954 6.554c0.065,-0.5 0.118,-0.995 0.176,-1.5a39.857,39.857 0,0 0,-2.514 -19.469zM75.771,28.8179 L75.778,28.8589z" id="path_11"/></svg>