<svg id="vector" xmlns="http://www.w3.org/2000/svg" width="200" height="52.885105" viewBox="0 0 200 52.885105"><path fill="#33ccff" d="M23.784,0H40.712V52.885H23.784Z" id="path_0"/><path fill="#33ccff" d="M0,0H16.904V52.885H0Z" id="path_1"/><path fill="#33ccff" d="M79.33,0H96.257V52.885H79.33Z" id="path_2"/><path fill="#33ccff" d="m124.827,0h16.928v52.885h-16.928z" id="path_3"/><path fill="#33ccff" d="M170.84,0H187.772v52.885h-16.932z" id="path_4"/><path fill="#ff4400" d="M40.657,0H62.402V16.912H40.657Z" id="path_5"/><path fill="#ff4400" d="M40.657,21.674H55.522V38.602H40.657Z" id="path_6"/><path fill="#ff4400" d="M67.164,0H79.595V16.912H67.164Z" id="path_7"/><path fill="#ff4400" d="m96.046,0h12.431V16.912H96.046Z" id="path_8"/><path fill="#ff4400" d="m112.658,0h12.431v16.912h-12.431z" id="path_9"/><path fill="#ff4400" d="m141.544,0h12.431v16.912h-12.431z" id="path_10"/><path fill="#ff4400" d="M158.683,0H171.114V16.912H158.683Z" id="path_11"/><path fill="#ff4400" d="M187.569,0H200v16.912h-12.431z" id="path_12"/><path fill="#000000" d="M79.33,0H96.257V16.912H79.33Z" id="path_13"/><path fill="#000000" d="m124.827,0h16.928v16.912h-16.928z" id="path_14"/><path fill="#000000" d="m170.852,0h16.928v16.912h-16.928z" id="path_15"/><path fill="#000000" d="M23.784,0H40.712V16.912H23.784Z" id="path_16"/><path fill="#000000" d="M23.784,21.674H40.712V38.606H23.784Z" id="path_17"/></svg>