<svg id="vector" xmlns="http://www.w3.org/2000/svg" width="200" height="200" viewBox="0 0 20.48 20.48"><path fill="#cf272d" d="m10.24,17.78c-4.16,0 -7.54,-3.37 -7.54,-7.54 0,-4.16 3.37,-7.54 7.54,-7.54 4.16,0 7.54,3.37 7.54,7.54 0,4.16 -3.37,7.54 -7.54,7.54zM10.24,0C4.58,0 0,4.58 0,10.24 0,15.89 4.58,20.48 10.24,20.48c5.65,0 10.24,-4.58 10.24,-10.24 0,-5.65 -4.58,-10.24 -10.24,-10.24z" id="path_0"/><path fill="#cf272d" d="m10.66,7.68c0,-1.17 0.95,-2.12 2.12,-2.12 1.17,0 2.12,0.95 2.12,2.12 0,1.17 -0.95,2.12 -2.12,2.12 -1.17,0 -2.12,-0.95 -2.12,-2.12m0,5.10c0,-1.17 0.95,-2.12 2.12,-2.12 1.17,0 2.12,0.95 2.12,2.12 0,1.17 -0.95,2.12 -2.12,2.12 -1.17,0 -2.12,-0.95 -2.12,-2.12m-5.10,0c0,-1.17 0.95,-2.12 2.12,-2.12 1.17,0 2.12,0.95 2.12,2.12 0,1.17 -0.95,2.12 -2.12,2.12 -1.17,0 -2.12,-0.95 -2.12,-2.12m0,-5.10c0,-1.17 0.95,-2.12 2.12,-2.12 1.17,0 2.12,0.95 2.12,2.12 0,1.17 -0.95,2.12 -2.12,2.12 -1.17,0 -2.12,-0.95 -2.12,-2.12" id="path_1"/></svg>