<svg id="vector" xmlns="http://www.w3.org/2000/svg" width="66" height="58" viewBox="0 0 65.812035 58"><path fill="#e9e9ff" d="M18.93,18.826l9.323,3.394v10.957l-9.323,-3.394z" stroke="#ccc" stroke-linejoin="bevel" stroke-width=".214" id="path_0"/><path fill="#353564" d="M9.47,22.27v10.957l9.46,-3.444V18.826z" stroke="#ccc" stroke-linejoin="bevel" stroke-width=".214" id="path_1"/><path fill="#afafde" d="M9.47,33.227l9.322,3.393 9.46,-3.443 -9.322,-3.394z" stroke="#ccc" stroke-linejoin="bevel" stroke-width=".214" id="path_2"/><path fill="#f7f7f4" d="M9.47,22.27l9.322,3.393 9.46,-3.443 -9.322,-3.394z" stroke="#ccc" stroke-linejoin="bevel" stroke-width=".214" id="path_3"/><path fill="#fff" d="M18.792,25.663V36.62l9.46,-3.443V22.22z" stroke="#ccc" stroke-linejoin="bevel" stroke-width=".214" id="path_4"/><path fill="#efeeea" d="M9.47,22.27l9.322,3.393V36.62L9.47,33.227z" stroke="#ccc" stroke-linejoin="bevel" stroke-width=".214" id="path_5"/><path fill="#e9e9ff" d="M28.293,11.166l9.323,3.393v10.957l-9.323,-3.393z" stroke="#ccc" stroke-linejoin="bevel" stroke-width=".214" id="path_6"/><path fill="#353564" d="M18.833,14.609v10.957l9.46,-3.443V11.166z" stroke="#ccc" stroke-linejoin="bevel" stroke-width=".214" id="path_7"/><path fill="#afafde" d="M18.833,25.566l9.322,3.393 9.461,-3.443 -9.323,-3.393z" stroke="#ccc" stroke-linejoin="bevel" stroke-width=".214" id="path_8"/><path fill="#f7f7f4" d="M18.833,14.609l9.322,3.393 9.461,-3.443 -9.323,-3.393z" stroke="#ccc" stroke-linejoin="bevel" stroke-width=".214" id="path_9"/><path fill="#fff" d="M28.155,18.002V28.96l9.461,-3.443V14.559z" stroke="#ccc" stroke-linejoin="bevel" stroke-width=".214" id="path_10"/><path fill="#efeeea" d="M18.833,14.609l9.322,3.393V28.96l-9.322,-3.393z" stroke="#ccc" stroke-linejoin="bevel" stroke-width=".214" id="path_11"/><path fill="#e9e9ff" d="M9.567,33.297l9.322,3.393v10.957l-9.322,-3.393z" stroke="#ccc" stroke-linejoin="bevel" stroke-width=".214" id="path_12"/><path fill="#353564" d="M0.106,36.74v10.957l9.46,-3.443V33.297z" stroke="#ccc" stroke-linejoin="bevel" stroke-width=".214" id="path_13"/><path fill="#afafde" d="M0.106,47.697L9.43,51.09l9.46,-3.443 -9.322,-3.393z" stroke="#ccc" stroke-linejoin="bevel" stroke-width=".214" id="path_14"/><path fill="#f7f7f4" d="M0.106,36.74l9.323,3.393 9.46,-3.443 -9.322,-3.393z" stroke="#ccc" stroke-linejoin="bevel" stroke-width=".214" id="path_15"/><path fill="#fff" d="M9.429,40.133V51.09l9.46,-3.443V36.69z" stroke="#ccc" stroke-linejoin="bevel" stroke-width=".214" id="path_16"/><path fill="#efeeea" d="M0.106,36.74l9.323,3.393V51.09L0.106,47.697z" stroke="#ccc" stroke-linejoin="bevel" stroke-width=".214" id="path_17"/><path fill="#e9e9ff" d="M18.93,36.702l9.323,3.393v10.957l-9.323,-3.393z" stroke="#ccc" stroke-linejoin="bevel" stroke-width=".214" id="path_18"/><path fill="#353564" d="M9.47,40.145v10.957l9.46,-3.443V36.702z" stroke="#ccc" stroke-linejoin="bevel" stroke-width=".214" id="path_19"/><path fill="#afafde" d="M9.47,51.102l9.322,3.393 9.46,-3.443 -9.322,-3.393z" stroke="#ccc" stroke-linejoin="bevel" stroke-width=".214" id="path_20"/><path fill="#f7f7f4" d="M9.47,40.145l9.322,3.393 9.46,-3.443 -9.322,-3.393z" stroke="#ccc" stroke-linejoin="bevel" stroke-width=".214" id="path_21"/><path fill="#fff" d="M18.792,43.538v10.957l9.46,-3.443V40.095z" stroke="#ccc" stroke-linejoin="bevel" stroke-width=".214" id="path_22"/><path fill="#efeeea" d="M9.47,40.145l9.322,3.393v10.957L9.47,51.102z" stroke="#ccc" stroke-linejoin="bevel" stroke-width=".214" id="path_23"/><path fill="#e9e9ff" d="M18.93,25.636l9.323,3.393v10.957l-9.323,-3.393z" stroke="#ccc" stroke-linejoin="bevel" stroke-width=".214" id="path_24"/><path fill="#353564" d="M9.47,29.08v10.956l9.46,-3.443V25.636z" stroke="#ccc" stroke-linejoin="bevel" stroke-width=".214" id="path_25"/><path fill="#afafde" d="M9.47,40.036l9.322,3.394 9.46,-3.444 -9.322,-3.393z" stroke="#ccc" stroke-linejoin="bevel" stroke-width=".214" id="path_26"/><path fill="#f7f7f4" d="M9.47,29.08l9.322,3.393 9.46,-3.444 -9.322,-3.393z" stroke="#ccc" stroke-linejoin="bevel" stroke-width=".214" id="path_27"/><path fill="#fff" d="M18.792,32.473V43.43l9.46,-3.444V29.03z" stroke="#ccc" stroke-linejoin="bevel" stroke-width=".214" id="path_28"/><path fill="#efeeea" d="M9.47,29.08l9.322,3.393V43.43L9.47,40.036z" stroke="#ccc" stroke-linejoin="bevel" stroke-width=".214" id="path_29"/><path fill="#e9e9ff" d="M56.383,29.892l9.323,3.393v10.957l-9.323,-3.393z" stroke="#ccc" stroke-linejoin="bevel" stroke-width=".214" id="path_30"/><path fill="#353564" d="M46.923,33.335v10.957l9.46,-3.443V29.892z" stroke="#ccc" stroke-linejoin="bevel" stroke-width=".214" id="path_31"/><path fill="#afafde" d="M46.923,44.292l9.322,3.394 9.46,-3.444 -9.322,-3.393z" stroke="#ccc" stroke-linejoin="bevel" stroke-width=".214" id="path_32"/><path fill="#f7f7f4" d="M46.923,33.335l9.322,3.394 9.46,-3.444 -9.322,-3.393z" stroke="#ccc" stroke-linejoin="bevel" stroke-width=".214" id="path_33"/><path fill="#fff" d="M56.245,36.729v10.957l9.46,-3.444V33.285z" stroke="#ccc" stroke-linejoin="bevel" stroke-width=".214" id="path_34"/><path fill="#efeeea" d="M46.923,33.335l9.322,3.394v10.957l-9.322,-3.394z" stroke="#ccc" stroke-linejoin="bevel" stroke-width=".214" id="path_35"/><path fill="#e9e9ff" d="M47.0168,33.2954l9.3223,3.3931l0,10.9569l-9.3223,-3.3931z" stroke="#ccc" stroke-linejoin="bevel" stroke-width=".328" id="path_36"/><path fill="#353564" d="M37.5563,36.7387l0,10.9569l9.4604,-3.4433l0,-10.9563z" stroke="#ccc" stroke-linejoin="bevel" stroke-width=".328" id="path_37"/><path fill="#afafde" d="M37.5563,47.6956l9.3223,3.3931 9.4604,-3.4433 -9.3223,-3.3931z" stroke="#ccc" stroke-linejoin="bevel" stroke-width=".328" id="path_38"/><path fill="#f7f7f4" d="M37.5563,36.7387l9.3223,3.3931 9.4604,-3.4433 -9.3223,-3.3931z" stroke="#ccc" stroke-linejoin="bevel" stroke-width=".328" id="path_39"/><path fill="#ffd242" d="M46.8786,40.1318l0,10.9569l9.4604,-3.4433l0,-10.9563z" stroke="#ccc" stroke-linejoin="bevel" stroke-width=".328" id="path_40"/><path fill="#efeeea" d="M37.5563,36.7387l9.3223,3.3931l0,10.9569l-9.3223,-3.3931z" stroke="#ccc" stroke-linejoin="bevel" stroke-width=".328" id="path_41"/><path fill="#fff" d="M52.821,43.4602m-1.8172,0.6614a2.2402,1.5686 125.0006,1 1,3.6344 -1.3228a2.2402,1.5686 125.0006,1 1,-3.6344 1.3228" id="path_42"/><path fill="#e9e9ff" d="M37.657,36.702l9.322,3.393v10.957l-9.322,-3.393z" stroke="#ccc" stroke-linejoin="bevel" stroke-width=".214" id="path_43"/><path fill="#353564" d="M28.196,40.145v10.957l9.46,-3.443V36.702z" stroke="#ccc" stroke-linejoin="bevel" stroke-width=".214" id="path_44"/><path fill="#afafde" d="M28.196,51.102l9.323,3.393 9.46,-3.443 -9.322,-3.393z" stroke="#ccc" stroke-linejoin="bevel" stroke-width=".214" id="path_45"/><path fill="#f7f7f4" d="M28.196,40.145l9.323,3.393 9.46,-3.443 -9.322,-3.393z" stroke="#ccc" stroke-linejoin="bevel" stroke-width=".214" id="path_46"/><path fill="#ffd242" d="M37.519,43.538v10.957l9.46,-3.443V40.095z" stroke="#ccc" stroke-linejoin="bevel" stroke-width=".214" id="path_47"/><path fill="#efeeea" d="M28.196,40.145l9.323,3.393v10.957l-9.323,-3.393z" stroke="#ccc" stroke-linejoin="bevel" stroke-width=".214" id="path_48"/><path fill="#e9e9ff" d="M28.293,40.107l9.323,3.393v10.957l-9.323,-3.393z" stroke="#ccc" stroke-linejoin="bevel" stroke-width=".214" id="path_49"/><path fill="#353564" d="M18.833,43.55v10.957l9.46,-3.443V40.107z" stroke="#ccc" stroke-linejoin="bevel" stroke-width=".214" id="path_50"/><path fill="#afafde" d="M18.833,54.507l9.322,3.393 9.46,-3.443 -9.322,-3.393z" stroke="#ccc" stroke-linejoin="bevel" stroke-width=".214" id="path_51"/><path fill="#f7f7f4" d="M18.833,43.55l9.322,3.393 9.46,-3.443 -9.322,-3.393z" stroke="#ccc" stroke-linejoin="bevel" stroke-width=".214" id="path_52"/><path fill="#fff" d="M28.155,46.943V57.9l9.46,-3.443V43.5z" stroke="#ccc" stroke-linejoin="bevel" stroke-width=".214" id="path_53"/><path fill="#efeeea" d="M18.833,43.55l9.322,3.393V57.9l-9.322,-3.393z" stroke="#ccc" stroke-linejoin="bevel" stroke-width=".214" id="path_54"/><path fill="#e9e9ff" d="M56.383,18.826l9.323,3.394v10.957l-9.323,-3.394z" stroke="#ccc" stroke-linejoin="bevel" stroke-width=".214" id="path_55"/><path fill="#353564" d="M46.923,22.27v10.957l9.46,-3.444V18.826z" stroke="#ccc" stroke-linejoin="bevel" stroke-width=".214" id="path_56"/><path fill="#afafde" d="M46.923,33.227l9.322,3.393 9.46,-3.443 -9.322,-3.394z" stroke="#ccc" stroke-linejoin="bevel" stroke-width=".214" id="path_57"/><path fill="#f7f7f4" d="M46.923,22.27l9.322,3.393 9.46,-3.443 -9.322,-3.394z" stroke="#ccc" stroke-linejoin="bevel" stroke-width=".214" id="path_58"/><path fill="#ffd242" d="M56.245,25.663V36.62l9.46,-3.443V22.22z" stroke="#ccc" stroke-linejoin="bevel" stroke-width=".214" id="path_59"/><path fill="#efeeea" d="M46.923,22.27l9.322,3.393V36.62l-9.322,-3.393z" stroke="#ccc" stroke-linejoin="bevel" stroke-width=".214" id="path_60"/><path fill="#e9e9ff" d="M56.383,7.76l9.323,3.394V22.11l-9.323,-3.393z" stroke="#ccc" stroke-linejoin="bevel" stroke-width=".214" id="path_61"/><path fill="#353564" d="M46.923,11.204v10.957l9.46,-3.443V7.76z" stroke="#ccc" stroke-linejoin="bevel" stroke-width=".214" id="path_62"/><path fill="#afafde" d="M46.923,22.161l9.322,3.393 9.46,-3.443 -9.322,-3.393z" stroke="#ccc" stroke-linejoin="bevel" stroke-width=".214" id="path_63"/><path fill="#ffc91d" d="M46.923,11.204l9.322,3.393 9.46,-3.443 -9.322,-3.393z" stroke="#ccc" stroke-linejoin="bevel" stroke-width=".214" id="path_64"/><path fill="#ffd242" d="M56.245,14.597v10.957l9.46,-3.443V11.154z" stroke="#ccc" stroke-linejoin="bevel" stroke-width=".214" id="path_65"/><path fill="#efeeea" d="M46.923,11.204l9.322,3.393v10.957l-9.322,-3.393z" stroke="#ccc" stroke-linejoin="bevel" stroke-width=".214" id="path_66"/><path fill="#e9e9ff" d="M47.02,22.231l9.322,3.393v10.957l-9.322,-3.393z" stroke="#ccc" stroke-linejoin="bevel" stroke-width=".214" id="path_67"/><path fill="#353564" d="M37.56,25.675v10.957l9.46,-3.444V22.231z" stroke="#ccc" stroke-linejoin="bevel" stroke-width=".214" id="path_68"/><path fill="#afafde" d="M37.56,36.632l9.322,3.393 9.46,-3.444 -9.322,-3.393z" stroke="#ccc" stroke-linejoin="bevel" stroke-width=".214" id="path_69"/><path fill="#f7f7f4" d="M37.56,25.675l9.322,3.393 9.46,-3.444 -9.322,-3.393z" stroke="#ccc" stroke-linejoin="bevel" stroke-width=".214" id="path_70"/><path fill="#ffd242" d="M46.882,29.068v10.957l9.46,-3.444V25.624z" stroke="#ccc" stroke-linejoin="bevel" stroke-width=".214" id="path_71"/><path fill="#efeeea" d="M37.56,25.675l9.322,3.393v10.957l-9.323,-3.393z" stroke="#ccc" stroke-linejoin="bevel" stroke-width=".214" id="path_72"/><path fill="#e9e9ff" d="M47.02,11.166l9.322,3.393v10.957l-9.322,-3.393z" stroke="#ccc" stroke-linejoin="bevel" stroke-width=".214" id="path_73"/><path fill="#353564" d="M37.56,14.609v10.957l9.46,-3.443V11.166z" stroke="#ccc" stroke-linejoin="bevel" stroke-width=".214" id="path_74"/><path fill="#afafde" d="M37.56,25.566l9.322,3.393 9.46,-3.443 -9.322,-3.393z" stroke="#ccc" stroke-linejoin="bevel" stroke-width=".214" id="path_75"/><path fill="#f7f7f4" d="M37.56,14.609l9.322,3.393 9.46,-3.443 -9.322,-3.393z" stroke="#ccc" stroke-linejoin="bevel" stroke-width=".214" id="path_76"/><path fill="#3775a9" d="M46.882,18.002V28.96l9.46,-3.443V14.559z" stroke="#ccc" stroke-linejoin="bevel" stroke-width=".214" id="path_77"/><path fill="#efeeea" d="M37.56,14.609l9.322,3.393V28.96l-9.323,-3.393z" stroke="#ccc" stroke-linejoin="bevel" stroke-width=".214" id="path_78"/><path fill="#e9e9ff" d="M47.02,0.1l9.322,3.393V14.45l-9.322,-3.393z" stroke="#ccc" stroke-linejoin="bevel" stroke-width=".214" id="path_79"/><path fill="#353564" d="M37.56,3.543V14.5l9.46,-3.443V0.1z" stroke="#ccc" stroke-linejoin="bevel" stroke-width=".214" id="path_80"/><path fill="#afafde" d="M37.56,14.5l9.322,3.393 9.46,-3.443 -9.322,-3.393z" stroke="#ccc" stroke-linejoin="bevel" stroke-width=".214" id="path_81"/><path fill="#2f6491" d="M37.56,3.543l9.322,3.393 9.46,-3.443L47.02,0.1z" stroke="#ccc" stroke-linejoin="bevel" stroke-width=".214" id="path_82"/><path fill="#3775a9" d="M46.882,6.936v10.957l9.46,-3.443V3.493z" stroke="#ccc" stroke-linejoin="bevel" stroke-width=".214" id="path_83"/><path fill="#efeeea" d="M37.56,3.543l9.322,3.393v10.957L37.559,14.5z" stroke="#ccc" stroke-linejoin="bevel" stroke-width=".214" id="path_84"/><path fill="#e9e9ff" d="M37.657,25.636l9.322,3.393v10.957l-9.322,-3.393z" stroke="#ccc" stroke-linejoin="bevel" stroke-width=".214" id="path_85"/><path fill="#353564" d="M28.196,29.08v10.956l9.46,-3.443V25.636z" stroke="#ccc" stroke-linejoin="bevel" stroke-width=".214" id="path_86"/><path fill="#afafde" d="M28.196,40.036l9.323,3.394 9.46,-3.444 -9.322,-3.393z" stroke="#ccc" stroke-linejoin="bevel" stroke-width=".214" id="path_87"/><path fill="#f7f7f4" d="M28.196,29.08l9.323,3.393 9.46,-3.444 -9.322,-3.393z" stroke="#ccc" stroke-linejoin="bevel" stroke-width=".214" id="path_88"/><path fill="#ffd242" d="M37.519,32.473V43.43l9.46,-3.444V29.03z" stroke="#ccc" stroke-linejoin="bevel" stroke-width=".214" id="path_89"/><path fill="#efeeea" d="M28.196,29.08l9.323,3.393V43.43l-9.323,-3.394z" stroke="#ccc" stroke-linejoin="bevel" stroke-width=".214" id="path_90"/><path fill="#e9e9ff" d="M37.657,14.57l9.322,3.394V28.92l-9.322,-3.394z" stroke="#ccc" stroke-linejoin="bevel" stroke-width=".214" id="path_91"/><path fill="#353564" d="M28.196,18.014V28.97l9.46,-3.444V14.57z" stroke="#ccc" stroke-linejoin="bevel" stroke-width=".214" id="path_92"/><path fill="#afafde" d="M28.196,28.97l9.323,3.394 9.46,-3.443 -9.322,-3.394z" stroke="#ccc" stroke-linejoin="bevel" stroke-width=".214" id="path_93"/><path fill="#f7f7f4" d="M28.196,18.014l9.323,3.393 9.46,-3.443 -9.322,-3.394z" stroke="#ccc" stroke-linejoin="bevel" stroke-width=".214" id="path_94"/><path fill="#3775a9" d="M37.519,21.407v10.957l9.46,-3.443V17.964z" stroke="#ccc" stroke-linejoin="bevel" stroke-width=".214" id="path_95"/><path fill="#efeeea" d="M28.196,18.014l9.323,3.393v10.957l-9.323,-3.393z" stroke="#ccc" stroke-linejoin="bevel" stroke-width=".214" id="path_96"/><path fill="#e9e9ff" d="M28.293,29.04l9.323,3.394v10.957l-9.323,-3.393z" stroke="#ccc" stroke-linejoin="bevel" stroke-width=".214" id="path_97"/><path fill="#353564" d="M18.833,32.484v10.957l9.46,-3.443V29.04z" stroke="#ccc" stroke-linejoin="bevel" stroke-width=".214" id="path_98"/><path fill="#afafde" d="M18.833,43.441l9.322,3.393 9.46,-3.443 -9.322,-3.393z" stroke="#ccc" stroke-linejoin="bevel" stroke-width=".214" id="path_99"/><path fill="#f7f7f4" d="M18.833,32.484l9.322,3.393 9.46,-3.443 -9.322,-3.393z" stroke="#ccc" stroke-linejoin="bevel" stroke-width=".214" id="path_100"/><path fill="#3775a9" d="M28.155,35.877v10.957l9.46,-3.443V32.434z" stroke="#ccc" stroke-linejoin="bevel" stroke-width=".214" id="path_101"/><path fill="#2f6491" d="M18.833,32.484l9.322,3.393v10.957l-9.322,-3.393z" stroke="#ccc" stroke-linejoin="bevel" stroke-width=".214" id="path_102"/><path fill="#e9e9ff" d="M28.293,17.975l9.323,3.393v10.957l-9.323,-3.393z" stroke="#ccc" stroke-linejoin="bevel" stroke-width=".214" id="path_103"/><path fill="#353564" d="M18.833,21.419v10.957l9.46,-3.444V17.975z" stroke="#ccc" stroke-linejoin="bevel" stroke-width=".214" id="path_104"/><path fill="#afafde" d="M18.833,32.376l9.322,3.393 9.46,-3.444 -9.322,-3.393z" stroke="#ccc" stroke-linejoin="bevel" stroke-width=".214" id="path_105"/><path fill="#2f6491" d="M18.833,21.419l9.322,3.393 9.46,-3.444 -9.322,-3.393z" stroke="#ccc" stroke-linejoin="bevel" stroke-width=".214" id="path_106"/><path fill="#3775a9" d="M28.155,24.812v10.957l9.46,-3.444V21.368z" stroke="#ccc" stroke-linejoin="bevel" stroke-width=".214" id="path_107"/><path fill="#2f6491" d="M18.833,21.419l9.322,3.393v10.957l-9.322,-3.393z" stroke="#ccc" stroke-linejoin="bevel" stroke-width=".214" id="path_108"/><path fill="#e9e9ff" d="M37.6534,3.5036l9.3229,3.3931l0,10.9569l-9.3229,-3.3931z" stroke="#ccc" stroke-linejoin="bevel" stroke-width=".328" id="path_109"/><path fill="#353564" d="M28.193,6.9469l0,10.9569l9.4604,-3.4433l0,-10.9569z" stroke="#ccc" stroke-linejoin="bevel" stroke-width=".328" id="path_110"/><path fill="#afafde" d="M28.193,17.9038l9.3229,3.3931 9.4604,-3.4433 -9.3229,-3.3931z" stroke="#ccc" stroke-linejoin="bevel" stroke-width=".328" id="path_111"/><path fill="#2f6491" d="M28.193,6.9469l9.3229,3.3931 9.4604,-3.4433 -9.3229,-3.3931z" stroke="#ccc" stroke-linejoin="bevel" stroke-width=".328" id="path_112"/><path fill="#3775a9" d="M37.5159,10.3401l0,10.9569l9.4604,-3.4433l0,-10.9569z" stroke="#ccc" stroke-linejoin="bevel" stroke-width=".328" id="path_113"/><path fill="#2f6491" d="M28.193,6.9469l9.3229,3.3931l0,10.9569l-9.3229,-3.3931z" stroke="#ccc" stroke-linejoin="bevel" stroke-width=".328" id="path_114"/><path fill="#fff" d="M41.0611,14.5152m-1.8172,0.6614a2.2402,1.5686 125.0006,1 1,3.6344 -1.3228a2.2402,1.5686 125.0006,1 1,-3.6344 1.3228" id="path_115"/></svg>