<svg id="vector" xmlns="http://www.w3.org/2000/svg" width="128" height="76" viewBox="0 0 270 160"><defs><clipPath id="clip_path_0"><path d="M83.471,9.59L83.471,55.59L61.471,55.59L61.471,78.59L43.051,78.59c-0.078,0.666 -0.141,1.333 -0.206,2 -1.151,12.531 1.036,24.088 6.063,33.969L50.596,117.59c1.011,1.817 2.191,3.523 3.438,5.188 1.245,1.662 1.686,2.583 2.469,3.688C69.791,141.401 89.6,148.59 112.471,148.59 163.119,148.59 206.104,126.152 225.127,75.746 238.624,77.131 251.57,73.67 257.471,62.152 248.072,56.729 235.992,58.467 229.033,61.965L247.471,9.59 175.471,55.59L152.471,55.59L152.471,9.59Z M 0,0"/></clipPath><clipPath id="clip_path_1"><path d="M83.471,9.59L83.471,55.59L61.471,55.59L61.471,78.59L43.051,78.59c-0.078,0.666 -0.141,1.333 -0.206,2 -1.151,12.531 1.036,24.088 6.063,33.969L50.596,117.59c1.011,1.817 2.191,3.523 3.438,5.188 1.245,1.662 1.686,2.583 2.469,3.688C69.791,141.401 89.6,148.59 112.471,148.59 163.119,148.59 206.104,126.152 225.127,75.746 238.624,77.131 251.57,73.67 257.471,62.152 248.072,56.729 235.992,58.467 229.033,61.965L247.471,9.59 175.471,55.59L152.471,55.59L152.471,9.59Z M 0,0"/></clipPath><clipPath id="clip_path_2"><path d="M83.471,9.59L83.471,55.59L61.471,55.59L61.471,78.59L43.051,78.59c-0.078,0.666 -0.141,1.333 -0.206,2 -1.151,12.531 1.036,24.088 6.063,33.969L50.596,117.59c1.011,1.817 2.191,3.523 3.438,5.188 1.245,1.662 1.686,2.583 2.469,3.688C69.791,141.401 89.6,148.59 112.471,148.59 163.119,148.59 206.104,126.152 225.127,75.746 238.624,77.131 251.57,73.67 257.471,62.152 248.072,56.729 235.992,58.467 229.033,61.965L247.471,9.59 175.471,55.59L152.471,55.59L152.471,9.59Z M 0,0"/></clipPath><clipPath id="clip_path_3"><path d="M83.471,9.59L83.471,55.59L61.471,55.59L61.471,78.59L43.051,78.59c-0.078,0.666 -0.141,1.333 -0.206,2 -1.151,12.531 1.036,24.088 6.063,33.969L50.596,117.59c1.011,1.817 2.191,3.523 3.438,5.188 1.245,1.662 1.686,2.583 2.469,3.688C69.791,141.401 89.6,148.59 112.471,148.59 163.119,148.59 206.104,126.152 225.127,75.746 238.624,77.131 251.57,73.67 257.471,62.152 248.072,56.729 235.992,58.467 229.033,61.965L247.471,9.59 175.471,55.59L152.471,55.59L152.471,9.59Z M 0,0"/></clipPath><clipPath id="clip_path_4"><path d="M83.471,9.59L83.471,55.59L61.471,55.59L61.471,78.59L43.051,78.59c-0.078,0.666 -0.141,1.333 -0.206,2 -1.151,12.531 1.036,24.088 6.063,33.969L50.596,117.59c1.011,1.817 2.191,3.523 3.438,5.188 1.245,1.662 1.686,2.583 2.469,3.688C69.791,141.401 89.6,148.59 112.471,148.59 163.119,148.59 206.104,126.152 225.127,75.746 238.624,77.131 251.57,73.67 257.471,62.152 248.072,56.729 235.992,58.467 229.033,61.965L247.471,9.59 175.471,55.59L152.471,55.59L152.471,9.59Z M 0,0"/></clipPath></defs><path fill="#394d54" d="m154.958,53.322h22.866v23.375h11.562c5.339,0 10.831,-0.951 15.887,-2.664 2.484,-0.842 5.273,-2.015 7.724,-3.489 -3.228,-4.214 -4.876,-9.536 -5.361,-14.781 -0.659,-7.134 0.78,-16.42 5.609,-22.004l2.404,-2.78 2.864,2.302c7.211,5.794 13.276,13.889 14.345,23.118 8.683,-2.554 18.878,-1.95 26.531,2.467l3.14,1.812 -1.653,3.226c-6.473,12.633 -20.005,16.547 -33.235,15.854 -19.797,49.308 -62.898,72.653 -115.157,72.653 -26.999,0 -51.77,-10.093 -65.876,-34.047 -0.827,-1.488 -1.535,-3.044 -2.286,-4.572 -4.768,-10.544 -6.352,-22.095 -5.277,-33.637l0.322,-3.457H58.92V53.322h22.866V30.456H127.518V7.59h27.44v45.732" id="path_0"/><g id="g_0"><path fill="#00acd3" d="m131.33,-11.465h19.818L151.147,8.352h-19.818z" clip-path="url(#clip_path_0)"/><path fill="#20c2ef" d="m131.33,11.4h19.818v19.818h-19.818z"/><path fill="#000000FF" d="M133.763,6.701L133.763,-9.815M136.735,6.701L136.735,-9.815m3.002,16.516L139.737,-9.815m3.003,16.516L142.74,-9.815M145.743,6.701L145.743,-9.815m2.971,16.516L148.714,-9.815" stroke-width="1.55999994" stroke="#394d54"/><path fill="#000000FF" d="M133.763,29.567L133.763,13.051M136.735,29.567L136.735,13.051m3.002,16.516L139.737,13.051m3.003,16.516L142.74,13.051M145.743,29.567L145.743,13.051m2.971,16.516L148.714,13.051" stroke-width="1.55999994" stroke="#394d54"/><path fill="#00acd3" d="m154.196,31.217l19.818,-0L174.014,11.4l-19.818,-0z"/><path fill="#20c2ef" d="m154.196,8.352l19.818,-0l0,-19.818l-19.818,-0z"/><path fill="#000000FF" d="M156.629,13.051L156.629,29.567M159.601,13.051L159.601,29.567m3.002,-16.516L162.603,29.567m3.003,-16.516L165.606,29.567M168.609,13.051L168.609,29.567m2.971,-16.516L171.58,29.567" stroke-width="1.55999994" stroke="#394d54"/><path fill="#000000FF" d="M156.629,-9.815L156.629,6.701M159.601,-9.815L159.601,6.701m3.002,-16.516L162.603,6.701m3.003,-16.516L165.606,6.701M168.609,-9.815L168.609,6.701m2.971,-16.516L171.58,6.701" stroke-width="1.55999994" stroke="#394d54"/><path fill="#00acd3" d="m39.866,34.267h19.818L59.684,54.084h-19.818z"/><path fill="#20c2ef" d="m39.866,57.132h19.818v19.818h-19.818z"/><path fill="#000000FF" d="M42.299,52.433L42.299,35.917M45.271,52.433L45.271,35.917m3.002,16.516L48.273,35.917m3.003,16.516L51.276,35.917M54.279,52.433L54.279,35.917m2.971,16.516L57.25,35.917" stroke-width="1.55999994" stroke="#394d54"/><path fill="#000000FF" d="M42.299,75.299L42.299,58.783M45.271,75.299L45.271,58.783m3.002,16.516L48.273,58.783m3.003,16.516L51.276,58.783M54.279,75.299L54.279,58.783m2.971,16.516L57.25,58.783" stroke-width="1.55999994" stroke="#394d54"/><path fill="#00acd3" d="m62.732,76.949l19.818,-0L82.55,57.132l-19.818,-0z"/><path fill="#20c2ef" d="m62.732,54.084l19.818,-0l0,-19.818l-19.818,-0z"/><path fill="#000000FF" d="M65.165,58.783L65.165,75.299M68.137,58.783L68.137,75.299m3.002,-16.516L71.139,75.299m3.003,-16.516L74.142,75.299M77.145,58.783L77.145,75.299m2.971,-16.516L80.116,75.299" stroke-width="1.55999994" stroke="#394d54"/><path fill="#000000FF" d="M65.165,35.917L65.165,52.433M68.137,35.917L68.137,52.433m3.002,-16.516L71.139,52.433m3.003,-16.516L74.142,52.433M77.145,35.917L77.145,52.433m2.971,-16.516L80.116,52.433" stroke-width="1.55999994" stroke="#394d54"/><path fill="#00acd3" d="m85.598,34.267h19.818L105.416,54.084h-19.818z"/><path fill="#20c2ef" d="m85.598,57.132h19.818v19.818h-19.818z"/><path fill="#000000FF" d="M88.031,52.433L88.031,35.917M91.003,52.433L91.003,35.917m3.002,16.516L94.005,35.917m3.003,16.516L97.008,35.917M100.011,52.433L100.011,35.917m2.971,16.516L102.982,35.917" stroke-width="1.55999994" stroke="#394d54"/><path fill="#000000FF" d="M88.031,75.299L88.031,58.783M91.003,75.299L91.003,58.783m3.002,16.516L94.005,58.783m3.003,16.516L97.008,58.783M100.011,75.299L100.011,58.783m2.971,16.516L102.982,58.783" stroke-width="1.55999994" stroke="#394d54"/><path fill="#00acd3" d="m108.464,76.949l19.818,-0L128.282,57.132l-19.818,-0z"/><path fill="#20c2ef" d="m108.464,54.084l19.818,-0l0,-19.818l-19.818,-0z"/><path fill="#000000FF" d="M110.897,58.783L110.897,75.299M113.869,58.783L113.869,75.299m3.002,-16.516L116.871,75.299m3.003,-16.516L119.874,75.299M122.877,58.783L122.877,75.299m2.971,-16.516L125.848,75.299" stroke-width="1.55999994" stroke="#394d54"/><path fill="#000000FF" d="M110.897,35.917L110.897,52.433M113.869,35.917L113.869,52.433m3.002,-16.516L116.871,52.433m3.003,-16.516L119.874,52.433M122.877,35.917L122.877,52.433m2.971,-16.516L125.848,52.433" stroke-width="1.55999994" stroke="#394d54"/><path fill="#00acd3" d="m131.33,34.267h19.818L151.148,54.084h-19.818z"/><path fill="#20c2ef" d="m131.33,57.132h19.818v19.818h-19.818z"/><path fill="#000000FF" d="M133.763,52.433L133.763,35.917M136.735,52.433L136.735,35.917m3.002,16.516L139.737,35.917m3.003,16.516L142.74,35.917M145.743,52.433L145.743,35.917m2.971,16.516L148.714,35.917" stroke-width="1.55999994" stroke="#394d54"/><path fill="#000000FF" d="M133.763,75.299L133.763,58.783M136.735,75.299L136.735,58.783m3.002,16.516L139.737,58.783m3.003,16.516L142.74,58.783M145.743,75.299L145.743,58.783m2.971,16.516L148.714,58.783" stroke-width="1.55999994" stroke="#394d54"/><path fill="#00acd3" d="m154.196,76.949l19.818,-0L174.014,57.132l-19.818,-0z"/><path fill="#20c2ef" d="m154.196,54.084l19.818,-0l0,-19.818l-19.818,-0z"/><path fill="#000000FF" d="M156.629,58.783L156.629,75.299M159.601,58.783L159.601,75.299m3.002,-16.516L162.603,75.299m3.003,-16.516L165.606,75.299M168.609,58.783L168.609,75.299m2.971,-16.516L171.58,75.299" stroke-width="1.55999994" stroke="#394d54"/><path fill="#000000FF" d="M156.629,35.917L156.629,52.433M159.601,35.917L159.601,52.433m3.002,-16.516L162.603,52.433m3.003,-16.516L165.606,52.433M168.609,35.917L168.609,52.433m2.971,-16.516L171.58,52.433" stroke-width="1.55999994" stroke="#394d54"/></g><g id="g_1"><path fill="#17b5eb" d="m229.041,61.969c1.533,-11.915 -7.384,-21.275 -12.914,-25.718 -6.373,7.368 -7.363,26.678 2.635,34.807 -5.58,4.956 -17.337,9.448 -29.376,9.448L41.471,80.507C40.3,93.074 41.471,153.59 41.471,153.59h217l-0.987,-91.424c-9.399,-5.424 -21.484,-3.694 -28.443,-0.197" clip-path="url(#clip_path_1)"/></g><g id="g_2"><path fill="#000000FF" d="m41.471,96.59v57L258.471,153.59L258.471,96.59" fill-opacity="0.17000002" clip-path="url(#clip_path_2)"/></g><g id="g_3"><path fill="#d4edf1" d="M118.708,148.48C105.168,142.055 97.736,133.321 93.601,123.785L52.471,125.59l21,28 45.237,-5.11" clip-path="url(#clip_path_3)"/></g><g id="g_4"><path fill="#000000FF" d="m229.971,61.527v0.031c-20.861,26.889 -50.783,50.379 -82.906,62.719 -28.655,11.008 -53.638,11.06 -70.875,2.219 -1.856,-1.048 -3.676,-2.212 -5.5,-3.313C58.053,114.352 50.935,99.742 51.533,80.496L41.471,80.496L41.471,153.59L258.471,153.59L258.471,57.59h-25z" fill-opacity="0.08500001" clip-path="url(#clip_path_4)"/></g><path fill="#00000000" d="m53.096,124.621c14.165,0.775 29.282,0.914 42.469,-3.219" stroke-width="3.4000001" stroke="#394d54" stroke-linecap="round" id="path_1"/><path fill="#d4edf1" d="m109.641,114.549c0,3.019 -2.448,5.467 -5.467,5.467 -3.02,0 -5.468,-2.448 -5.468,-5.467 0,-3.019 2.448,-5.468 5.468,-5.468 3.019,0 5.467,2.449 5.467,5.468z" id="path_2"/><path fill="#394d54" d="m105.592,110.898c-0.477,0.276 -0.8,0.793 -0.8,1.384 0,0.883 0.716,1.597 1.598,1.597 0.605,0 1.13,-0.336 1.402,-0.832 0.192,0.462 0.298,0.97 0.298,1.502 0,2.162 -1.753,3.915 -3.916,3.915 -2.162,0 -3.916,-1.753 -3.916,-3.915 0,-2.163 1.754,-3.917 3.916,-3.917 0.5,0 0.977,0.094 1.418,0.265z" id="path_3"/><path fill="#394d54" d="M7.471,97.752H261.798c-5.538,-1.405 -17.521,-3.302 -15.545,-10.56 -10.069,11.652 -34.353,8.174 -40.481,2.429 -6.825,9.898 -46.555,6.136 -49.326,-1.575 -8.556,10.041 -35.067,10.041 -43.623,0 -2.772,7.711 -42.501,11.473 -49.327,1.575 -6.128,5.746 -30.41,9.223 -40.48,-2.429 1.976,7.257 -10.007,9.155 -15.546,10.56" id="path_4"/></svg>