<svg id="vector" xmlns="http://www.w3.org/2000/svg" width="200" height="171.42" viewBox="0 0 200 171.42"><path fill="#000000FF" d="M185.71,0H14.28C6.39,0 0,6.39 0,14.28V157.14c0,7.89 6.39,14.28 14.28,14.28H185.71c7.89,0 14.28,-6.39 14.28,-14.28V14.28C200,6.39 193.60,0 185.71,0Z" id="path_0"/><path fill="#ffffff" d="M35.81,107.14 L28.79,100.11 43.08,85.82 57.38,71.52 43.08,57.23 28.79,42.93 35.81,35.92l7.01,-7.02 21.32,21.32 21.31,21.31 -21.32,21.32 -21.31,21.31z" id="path_1"/><path fill="#ffffff" d="M85.80,107.14V100.12h28.42,28.42v7.01,7.01H114.22,85.80Z" id="path_2"/></svg>