<svg id="vector" xmlns="http://www.w3.org/2000/svg" width="128" height="128" viewBox="0 0 128 128"><path fill="#6bbbea" d="M106.20,36.19C111.47,44.17 114.54,53.72 114.54,64 114.54,91.91 91.91,114.54 64,114.54c-17.44,-0 -32.82,-8.83 -41.90,-22.27L10.90,99.73C22.39,116.78 41.88,128 64,128c35.34,-0 64,-28.65 64,-64 0,-13.03 -3.90,-25.15 -10.59,-35.26l-11.19,7.46" id="path_0"/><path fill="#246cbe" d="m13.45,64c0,-27.91 22.63,-50.54 50.54,-50.54 17.64,-0 33.16,9.04 42.20,22.74l11.19,-7.46C105.94,11.42 86.31,0 64,0 28.65,0 0,28.65 0,64c0,13.23 4.01,25.53 10.90,35.73l11.19,-7.46C16.64,84.20 13.45,74.47 13.45,64" id="path_1"/><path fill="#1f262f" d="m33.57,84.28l58.71,-0c1.18,-0 2.14,-0.95 2.14,-2.14l-0,-38.42 -60.85,40.56" id="path_2"/><path fill="#fab20b" d="M64,64 L33.57,43.71L33.57,84.28c0.31,-0.20 0.54,-0.36 0,-0l0,0l30.42,-20.28" id="path_3"/></svg>