<svg id="vector" xmlns="http://www.w3.org/2000/svg" width="16" height="16" viewBox="0 0 16 16"><defs><clipPath id="clip_path_0"><path d="M70.743 55.788l97.466 0 0 97.466 -97.466 0z"/></clipPath></defs><g transform="translate(-11.6117, 25.1327) scale(0.1640395, -0.1640395)" id="g_0"><g transform="translate(168.2092, 104.5215)" clip-path="url(#clip_path_0)"><path fill="#29833b" d="M0 0c0 -26.917 -21.816 -48.733 -48.733 -48.733 -26.916 0 -48.734 21.816 -48.734 48.733 0 26.915 21.818 48.733 48.734 48.733C-21.816 48.733 0 26.915 0 0"/></g><g transform="translate(145.8528, 119.0348)"><path fill="#ffffff" d="M0 0c-0.589 -1.784 -2.511 -2.751 -4.292 -2.165 -1.784 0.589 -2.755 2.51 -2.165 4.294 0.585 1.785 2.511 2.75 4.288 2.163C-0.383 3.705 0.587 1.782 0 0"/></g><g transform="translate(144.3356, 73.6443)"><path fill="#ffffff" d="M0 0L-5.435 6.444C-1.803 9.749 6.134 18.056 7.238 28.371L2.732 28.853C1.526 17.632 -9.897 8.578 -10.01 8.488l-1.856 -1.448 8.165 -9.688c-6.066 -3.845 -13.244 -6.094 -20.934 -6.136l0 19.687 -4.534 0 0 -19.454c-19.852 2.155 -35.357 19.009 -35.357 39.426 0 21.875 17.794 39.668 39.664 39.668 1.562 0 3.099 -0.1 4.609 -0.275 -5.098 -1.667 -9.226 -5.123 -11.967 -10.216 -5.575 -10.356 -3.957 -25.282 3.534 -32.598 2.086 -2.037 5.732 -4.547 11.03 -4.547 3.24 0 7.096 0.94 11.593 3.501l-2.241 3.938c-6.965 -3.966 -12.917 -3.844 -17.216 0.352 -6.059 5.916 -7.327 18.63 -2.709 27.203 4.239 7.873 15.115 11.789 23.258 7.275C6.843 58.298 14.806 45.505 14.806 30.875 14.806 18.412 9.023 7.276 0 0m-24.862 75.077c-24.37 0 -44.197 -19.827 -44.197 -44.202 0 -24.37 19.827 -44.199 44.197 -44.199 24.373 0 44.203 19.829 44.203 44.199 0 24.375 -19.83 44.202 -44.203 44.202"/></g></g></svg>