<svg id="vector" xmlns="http://www.w3.org/2000/svg" width="72" height="80" viewBox="0 0 72 80"><g transform="translate(-36, -36)" id="g_0"><path fill="#430098" d="M100.8 36L43.2 36C39.224 36 36 39.224 36 43.2l0 65.6c0 3.976 3.224 7.2 7.2 7.2l57.6 0c3.976 0 7.2 -3.224 7.2 -7.2l0 -65.6c0 -3.976 -3.224 -7.2 -7.2 -7.2zm-46.8 68l0 -16 9 8zm28 0l0 -23.89C81.961 78.243 81.062 76 77 76 68.866 76 59.742 80.091 59.651 80.132L54 82.692 54 48l8 0 0 22.711C65.994 69.411 71.577 68 77 68c4.945 0 7.905 1.944 9.517 3.575 3.441 3.48 3.488 7.913 3.483 8.425l0 24zm2 -43l-8 0c3.144 -4.125 5.118 -8.466 6 -13l8 0c-0.54 4.544 -2.382 8.9 -6 13z"/></g></svg>