<svg id="vector" xmlns="http://www.w3.org/2000/svg" width="103.9" height="103.9" viewBox="0 0 103.9 103.9"><path fill="#00aee6" d="M38.56,52,17,73.54l27.09,27.09a11.16,11.16,0,0,0,15.78,0L86.94,73.54,65.35,52,52,38.56Z" id="path_0"/><path fill="#123962" d="M17,30.36,3.27,44.06a11.16,11.16,0,0,0,0,15.78L17,73.54,38.56,52,52,38.56,30.36,17Z" id="path_1"/><path fill="#b1d4e5" d="M73.54,60.15,86.94,73.54l13.7-13.7a11.16,11.16,0,0,0,0-15.78l-5.5-5.5Z" id="path_2"/><path fill="#b1d4e5" d="M 65.34 51.95 L 65.34 51.95 L 51.95 38.56 L 73.54 16.97 L 73.54 16.97 L 51.95 38.56 L 65.34 51.95 Z" id="path_3"/><path fill="#2754ba" d="M 51.95 38.56 L 65.34 51.95 L 73.54 60.15 L 95.13 38.56 L 86.94 30.36 L 73.54 16.97 L 51.95 38.56 Z" id="path_4"/><path fill="#799eb2" d="M73.54,17,59.84,3.27a11.16,11.16,0,0,0-15.78,0L30.36,17,52,38.56Z" id="path_5"/></svg>