<svg id="vector" xmlns="http://www.w3.org/2000/svg" width="128" height="128" viewBox="0 0 32 32"><defs><linearGradient gradientUnits="userSpaceOnUse" y1="30.117647" x1="30.117647" y2="1.882353" x2="1.882353" id="gradient_0"><stop offset="0" stop-color="#FF254CFF"/><stop offset="1" stop-color="#FF4246FF"/></linearGradient><linearGradient gradientUnits="userSpaceOnUse" y1="25" x1="27" y2="6" x2="5" id="gradient_1"><stop offset="0" stop-color="#FF00AAFF"/><stop offset="1" stop-color="#FF381AFF"/></linearGradient><linearGradient gradientUnits="userSpaceOnUse" y1="25" x1="27" y2="6" x2="5" id="gradient_2"><stop offset="0" stop-color="#FFFFFF00"/><stop offset="1" stop-color="#FFFFFFFF"/></linearGradient></defs><path fill="url(#gradient_0)" d="M0,0h32v32h-32z" stroke-width="1" fill-rule="evenodd" stroke="#00000000" id="path_0"/><path fill="url(#gradient_1)" d="M5,13.4913C5,12.6677 5.6704,12 6.4949,12L25.5051,12C26.3307,12 27,12.6625 27,13.4913L27,23.5087C27,24.3323 26.3296,25 25.5051,25L6.4949,25C5.6693,25 5,24.3375 5,23.5087L5,13.4913ZM7.0526,10.5C7.0526,9.6716 7.7323,9 8.5475,9L23.4525,9C24.2781,9 24.9474,9.6658 24.9474,10.5L24.9474,12L7.0526,12L7.0526,10.5ZM7.0526,11L24.9474,11L24.9474,12L7.0526,12L7.0526,11ZM9.1053,7.5C9.1053,6.6716 9.7704,6 10.6072,6L21.3928,6C22.2223,6 22.8947,6.6658 22.8947,7.5L22.8947,9L9.1053,9L9.1053,7.5ZM9.1053,8L22.8947,8L22.8947,9L9.1053,9L9.1053,8Z" stroke-width="1" fill-rule="evenodd" stroke="#00000000" id="path_1"/><path fill="#FFFFFF" d="M5,13.4913C5,12.6677 5.6704,12 6.4949,12L25.5051,12C26.3307,12 27,12.6625 27,13.4913L27,23.5087C27,24.3323 26.3296,25 25.5051,25L6.4949,25C5.6693,25 5,24.3375 5,23.5087L5,13.4913ZM7.0526,10.5C7.0526,9.6716 7.7323,9 8.5475,9L23.4525,9C24.2781,9 24.9474,9.6658 24.9474,10.5L24.9474,12L7.0526,12L7.0526,10.5ZM7.0526,11L24.9474,11L24.9474,12L7.0526,12L7.0526,11ZM9.1053,7.5C9.1053,6.6716 9.7704,6 10.6072,6L21.3928,6C22.2223,6 22.8947,6.6658 22.8947,7.5L22.8947,9L9.1053,9L9.1053,7.5ZM9.1053,8L22.8947,8L22.8947,9L9.1053,9L9.1053,8Z" stroke-width="1" fill-rule="evenodd" stroke="#00000000" id="path_2"/><path fill="url(#gradient_2)" d="M5,13.4913C5,12.6677 5.6704,12 6.4949,12L25.5051,12C26.3307,12 27,12.6625 27,13.4913L27,23.5087C27,24.3323 26.3296,25 25.5051,25L6.4949,25C5.6693,25 5,24.3375 5,23.5087L5,13.4913ZM7.0526,10.5C7.0526,9.6716 7.7323,9 8.5475,9L23.4525,9C24.2781,9 24.9474,9.6658 24.9474,10.5L24.9474,12L7.0526,12L7.0526,10.5ZM7.0526,11L24.9474,11L24.9474,12L7.0526,12L7.0526,11ZM9.1053,7.5C9.1053,6.6716 9.7704,6 10.6072,6L21.3928,6C22.2223,6 22.8947,6.6658 22.8947,7.5L22.8947,9L9.1053,9L9.1053,7.5ZM9.1053,8L22.8947,8L22.8947,9L9.1053,9L9.1053,8Z" stroke-width="1" fill-opacity="0.1" fill-rule="evenodd" stroke="#00000000" id="path_3"/></svg>