<svg id="vector" xmlns="http://www.w3.org/2000/svg" width="128" height="128" viewBox="0 0 128 128"><path fill="#d52b1e" d="m128,64c0,-35.34 -28.65,-64 -64,-64 -35.34,0 -64,28.65 -64,64 0,35.34 28.65,64 64,64 35.34,0 64,-28.65 64,-64" id="path_0"/><path fill="#ffffff" d="m57.03,112.92c12.79,-33.28 32.85,-54.89 52.05,-70.11 -2.41,-5.26 -5.82,-9.95 -9.81,-13.93 -20.47,15.50 -37.54,35.55 -49.49,58.59 -7.39,-5.26 -14.36,-10.95 -21.19,-16.92 -2.41,5.40 -4.69,11.09 -6.68,16.78 10.81,9.10 25.17,19.62 35.13,25.60" id="path_1"/></svg>