<svg id="vector" xmlns="http://www.w3.org/2000/svg" width="128" height="128" viewBox="0 0 128 128"><path fill="#d43377" d="M26.532,0L101.468,0A26.532,26.532 0,0 1,128 26.532L128,101.468A26.532,26.532 0,0 1,101.468 128L26.532,128A26.532,26.532 0,0 1,0 101.468L0,26.532A26.532,26.532 0,0 1,26.532 0z" stroke-width="0.25" id="path_0"/><path fill="none" d="M43.537,20.735L84.463,20.735A22.802,22.802 0,0 1,107.265 43.537L107.265,84.463A22.802,22.802 0,0 1,84.463 107.265L43.537,107.265A22.802,22.802 0,0 1,20.735 84.463L20.735,43.537A22.802,22.802 0,0 1,43.537 20.735z" stroke-width="8" stroke="#ffffff" id="path_1"/><path fill="none" d="M64,64m-20.171,0a20.171,20.171 0,1 1,40.341 0a20.171,20.171 0,1 1,-40.341 0" stroke-width="8" stroke="#ffffff" id="path_2"/><path fill="#ffffff" d="M86.408,35.943m-4.894,0a4.894,4.894 0,1 1,9.788 0a4.894,4.894 0,1 1,-9.788 0" id="path_3"/></svg>