<svg id="vector" xmlns="http://www.w3.org/2000/svg" width="200" height="184.22" viewBox="0 0 200 184.22"><path fill="#e24329" d="m99.99,184.22v0L136.82,70.89H63.17Z" id="path_0"/><path fill="#fc6d26" d="M99.99,184.22 L63.17,70.89H11.56Z" id="path_1"/><path fill="#fca326" d="m11.56,70.89v0L0.37,105.33c-1.01,3.14 0.10,6.58 2.76,8.52L99.99,184.22Z" id="path_2"/><path fill="#e24329" d="M11.56,70.89H63.17L40.99,2.63c-1.14,-3.51 -6.11,-3.51 -7.24,0z" id="path_3"/><path fill="#fc6d26" d="m99.99,184.22 l36.83,-113.33h51.60z" id="path_4"/><path fill="#fca326" d="m188.43,70.89v0l11.19,34.44c1.01,3.14 -0.10,6.58 -2.76,8.52l-96.86,70.37z" id="path_5"/><path fill="#e24329" d="M188.43,70.89H136.82L159.00,2.63c1.14,-3.51 6.11,-3.51 7.24,0z" id="path_6"/></svg>