<svg id="vector" xmlns="http://www.w3.org/2000/svg" width="128" height="128" viewBox="0 0 128 128"><path fill="#E1F2FA" d="M64,64m-64,0a64,64 0,1 1,128 0a64,64 0,1 1,-128 0" id="path_0"/><path fill="#00ABE7" d="M98.89,37.905l2.622,1.507l-14.741,8.774l2.539,-5.946l5.45,-3.675z" id="path_1"/><path fill="#34AEE3" d="M38.895,63.69 L37.677,73.93 31.215,80.083C23.948,75.933 16.557,71.866 9.352,67.613L25.724,61.812Z" id="path_2"/><path fill="#56B9E4" d="M43.314,46.472 L43.52,55.143 38.895,63.69 52.294,54.008 67.634,49.714 66.746,58.343 59.541,63.649 49.59,66.168 38.895,63.69 9.352,67.613C20.604,60.532 31.938,53.306 43.314,46.472Z" id="path_3"/><path fill="#008DBD" d="m38.895,63.69 l20.645,-0.041 -3.448,10.385 -6.916,6.586 -7.659,-6.937zM59.541,63.649 L70.008,63.876 77.543,68.108v0.041L80.268,86.689 77.626,104.465 63.422,79.69Z" id="path_4"/><path fill="#56B9E4" d="M92.346,92.511l-4.914,0.846l-6.813,-9.848l-3.076,-15.401l3.035,4.996l5.884,6.978z" id="path_5"/><path fill="#08A0CA" d="m79.381,57.043 l0.826,6.338 -2.663,4.728 -18.003,-4.459 11.066,-6.235zM77.543,68.108 L87.432,93.357 77.626,104.465Z" id="path_6"/><path fill="#56B9E4" d="M80.392,39.948l2.354,7.205l-3.365,9.889l-7.185,-4.831l-2.023,-6.813z" id="path_7"/><path fill="#79CDF1" d="m80.578,73.105c2.23,0 4.48,-0.021 6.71,0 1.693,6.462 3.386,12.924 5.058,19.406z" id="path_8"/><path fill="#79CDF1" d="m67.634,49.714 l2.539,-4.315c2.973,3.757 5.966,7.515 8.939,11.252l0.268,0.392 -19.84,6.606 8.093,-13.935 -25.806,12.552 -2.932,1.425 4.418,-17.218z" id="path_9"/><path fill="#79CDF1" d="M80.392,39.948l14.348,-1.342l-15.36,18.436z" id="path_10"/><path fill="#79CDF1" d="M94.761,38.565l8.609,-10.529l-1.858,11.375z" id="path_11"/><path fill="#0076A7" d="M91.479,95.67l-13.853,8.795l4.232,-8.96l5.574,-2.147z" id="path_12"/><path fill="#8ADAFF" d="M79.381,57.043l9.125,15.133l-10.963,-4.067z" id="path_13"/><path fill="#0076A7" d="M61.585,76.036l-2.87,8.63l-5.657,0.723l-3.881,-4.769l3.014,14.204l-0.764,21.244l-20.212,-35.985l8.01,-3.055l9.951,3.592l10.364,-16.97z" id="path_14"/><path fill="#009DE1" d="m38.895,63.69c3.468,5.595 6.854,11.334 10.281,16.929L31.215,80.083Z" id="path_15"/><path fill="#00698D" d="M59.541,63.649l18.085,40.815l-18.911,-19.799z" id="path_16"/><path fill="#005371" d="M49.177,80.619l9.538,4.046l-7.288,31.401z" id="path_17"/></svg>