<?xml version="1.0" standalone="no"?>
<svg xmlns="http://www.w3.org/2000/svg" width="24" height="24"><rect width="24" height="24" opacity="0"></rect><g><path d="M2.93 20.02Q2.93 20.83 3.32 21.52Q3.72 22.2 4.42 22.61Q5.11 23.02 5.93 23.02L17.9 23.02Q18.72 23.02 19.42 22.61Q20.11 22.2 20.51 21.52Q20.9 20.83 20.9 20.02L20.9 14.93L19.42 16.42L19.42 20.02Q19.42 20.64 18.97 21.07Q18.53 21.5 17.9 21.5L5.93 21.5Q5.3 21.5 4.86 21.07Q4.42 20.64 4.42 20.02L4.42 4.01Q4.42 3.38 4.86 2.94Q5.3 2.5 5.93 2.5L17.9 2.5Q18.53 2.5 18.97 2.94Q19.42 3.38 19.42 4.01L19.42 10.06L20.9 8.57L20.9 4.01Q20.9 3.19 20.51 2.51Q20.11 1.82 19.42 1.42Q18.72 1.01 17.9 1.01L5.93 1.01Q5.11 1.01 4.42 1.42Q3.72 1.82 3.32 2.51Q2.93 3.19 2.93 4.01L2.93 20.02ZM16.39 7.94Q16.7 7.94 16.92 7.73Q17.14 7.51 17.14 7.2Q17.14 6.89 16.92 6.67Q16.7 6.46 16.39 6.46L7.44 6.46Q7.13 6.46 6.91 6.67Q6.7 6.89 6.7 7.2Q6.7 7.51 6.91 7.73Q7.13 7.94 7.44 7.94L16.39 7.94ZM6.7 11.35Q6.7 11.66 6.91 11.89Q7.13 12.12 7.44 12.12L16.39 12.12Q16.7 12.12 16.92 11.89Q17.14 11.66 17.14 11.35Q17.14 11.04 16.92 10.82Q16.7 10.61 16.39 10.61L7.44 10.61Q7.13 10.61 6.91 10.82Q6.7 11.04 6.7 11.35ZM6.7 15.53Q6.7 15.84 6.91 16.06Q7.13 16.27 7.44 16.27L13.2 16.27L14.64 14.76L7.44 14.76Q7.13 14.76 6.91 14.99Q6.7 15.22 6.7 15.53Z" fill="rgba(0,0,0,0.9019607843137255)"></path><path d="M12.98 19.22Q12.91 19.34 12.96 19.48Q13.01 19.61 13.14 19.66Q13.27 19.7 13.39 19.63L15.19 18.62Q15.38 18.53 15.72 18.29L14.35 16.92Q14.23 17.11 14.09 17.3L13.99 17.45L12.98 19.22ZM23.52 9.17Q23.21 8.83 22.75 8.83Q22.3 8.83 21.98 9.17L15.1 16.01Q14.95 16.15 14.81 16.32L16.32 17.81Q16.37 17.76 16.42 17.71Q16.46 17.66 16.51 17.62Q16.56 17.57 16.61 17.52L23.52 10.68Q23.83 10.34 23.83 9.91Q23.83 9.48 23.52 9.17Z" fill="rgba(0,0,0,0.9019607843137255)"></path></g></svg>