<svg width="40.000000" height="40.000000" viewBox="0 0 40 40" fill="none" xmlns="http://www.w3.org/2000/svg" xmlns:xlink="http://www.w3.org/1999/xlink">
	<desc>
			Created with Pixso.
	</desc>
	<defs/>
	<rect id="尺寸=40" rx="20.000000" width="40.000000" height="40.000000" fill="#FFFFFF" fill-opacity="0.104537"/>
	<path id="路径" d="M23.21 12.19L23.18 12.22L16.02 18.75C15.33 19.42 15.32 20.5 15.98 21.19L16.02 21.23L23.18 27.78C23.31 27.91 23.48 27.98 23.65 27.99L23.7 28L23.75 28C23.94 27.99 24.13 27.92 24.27 27.78C24.56 27.49 24.57 27.04 24.3 26.75L24.27 26.72L17.47 20.52C17.18 20.24 17.17 19.79 17.44 19.49L17.47 19.46L24.27 13.28C24.57 12.99 24.57 12.51 24.27 12.22C24.12 12.08 23.93 12.01 23.75 12L23.7 12C23.52 12.01 23.35 12.07 23.21 12.19Z" fill="#FFFFFF" fill-opacity="0.901961" fill-rule="evenodd"/>
</svg>
