<?xml version="1.0" standalone="no"?>
<svg xmlns="http://www.w3.org/2000/svg" width="24" height="24"><rect width="24" height="24" opacity="0"></rect><g><path d="M12.96 1.2Q12.5 0.98 12.02 0.98Q11.54 0.98 11.06 1.2L3.89 4.54Q3.34 4.78 3.02 5.28Q2.71 5.78 2.71 6.41L2.71 11.18Q2.71 13.82 3.82 16.24Q4.92 18.65 6.9 20.4Q8.88 22.15 11.42 22.92Q12.02 23.06 12.6 22.92Q15.17 22.15 17.14 20.41Q19.1 18.67 20.2 16.28Q21.29 13.9 21.29 11.21L21.29 6.41Q21.29 5.78 20.96 5.29Q20.64 4.8 20.11 4.56L12.96 1.2ZM12.19 21.48Q12 21.53 11.86 21.48Q10.3 21 8.96 20.09Q7.63 19.18 6.62 17.93Q7.2 16.78 8.28 16.1Q9.36 15.43 10.66 15.43L13.32 15.43Q14.62 15.43 15.72 16.14Q16.82 16.85 17.38 18.02Q16.39 19.25 15.07 20.14Q13.75 21.02 12.19 21.48ZM19.8 11.21Q19.8 12.7 19.42 14.06Q19.03 15.43 18.31 16.66Q17.47 15.38 16.15 14.65Q14.83 13.92 13.32 13.92L10.66 13.92Q9.17 13.92 7.85 14.64Q6.53 15.36 5.69 16.58Q4.97 15.36 4.58 13.99Q4.2 12.62 4.2 11.21L4.2 6.41Q4.2 6.05 4.54 5.9L11.69 2.57Q12.02 2.42 12.34 2.57L19.49 5.93Q19.63 5.98 19.72 6.12Q19.8 6.26 19.8 6.43L19.8 11.21ZM11.98 5.47Q10.94 5.47 10.06 5.99Q9.17 6.5 8.65 7.39Q8.14 8.28 8.14 9.31Q8.14 10.34 8.65 11.23Q9.17 12.12 10.06 12.64Q10.94 13.15 11.98 13.15Q13.03 13.15 13.91 12.64Q14.78 12.12 15.3 11.23Q15.82 10.34 15.82 9.31Q15.82 8.28 15.3 7.39Q14.78 6.5 13.91 5.99Q13.03 5.47 11.98 5.47ZM11.98 11.64Q11.02 11.64 10.33 10.96Q9.65 10.27 9.65 9.31Q9.65 8.33 10.33 7.64Q11.02 6.96 11.98 6.96Q12.96 6.96 13.64 7.64Q14.33 8.33 14.33 9.31Q14.33 10.27 13.64 10.96Q12.96 11.64 11.98 11.64Z" fill="rgba(252,252,252,1)"></path></g></svg>